<svg width="350" height="350" viewBox="0 0 350 350" fill="none" xmlns="http://www.w3.org/2000/svg">
<g opacity="0.997">
<path fill-rule="evenodd" clip-rule="evenodd" d="M170.774 0C173.591 0 176.409 0 179.226 0C208.145 0.781061 235.234 8.19195 260.492 22.2326C285.447 36.3371 305.825 55.3847 321.625 79.376C338.124 104.809 347.45 132.703 349.606 163.057C349.787 165.915 349.919 168.768 350 171.614C350 173.871 350 176.129 350 178.386C349.306 208.831 341.317 237.197 326.035 263.484C311.289 288.397 291.629 308.53 267.054 323.883C242.606 338.929 216.024 347.495 187.311 349.58C184.33 349.776 181.355 349.917 178.386 350C176.129 350 173.871 350 171.614 350C141.126 349.304 112.725 341.298 86.4107 325.982C61.9721 311.501 42.1192 292.261 26.8524 268.262C11.4734 243.7 2.67132 216.927 0.446228 187.941C0.243185 185.013 0.0944428 182.09 0 179.174C0 176.374 0 173.574 0 170.774C0.874486 139.517 9.38779 110.538 25.54 83.8383C40.0485 60.2654 59.0265 41.1124 82.4734 26.3799C106.855 11.2885 133.383 2.6439 162.059 0.446228C164.97 0.244776 167.875 0.0960335 170.774 0ZM171.404 15.5917C198.444 15.0811 223.993 20.9695 248.05 33.2571C271.066 45.2681 290.131 61.8661 305.246 83.0508C320.722 105.077 330.085 129.523 333.332 156.39C336.068 180.401 333.565 203.85 325.825 226.736C317.169 251.569 303.336 272.988 284.326 290.993C274.507 274.48 264.699 257.962 254.901 241.435C225.557 191.051 196.22 140.663 166.889 90.2692C185.508 90.2257 204.127 90.2341 222.746 90.2955C214.854 103.105 206.962 115.914 199.07 128.724C202.689 134.442 206.329 140.147 209.99 145.838C223.886 121.746 237.763 97.6404 251.62 73.5226C213.244 73.479 174.869 73.4874 136.493 73.5488C170.139 131.585 203.799 189.612 237.472 247.63C248.026 266.297 258.587 284.96 269.154 303.619C249.148 318.245 226.872 327.73 202.325 332.072C178.501 336.111 154.947 334.904 131.663 328.45C108.848 321.902 88.5316 310.947 70.714 295.586C50.6133 278.081 35.7303 256.881 26.0649 231.986C17.3791 209.03 14.0892 185.318 16.1954 160.852C18.5365 135.262 26.5161 111.62 40.1342 89.928C47.6442 78.1066 56.5685 67.3972 66.9079 57.7996C76.3464 74.183 85.8043 90.5532 95.2827 106.911C95.2654 106.928 95.2476 106.946 95.2302 106.963C125.941 159.688 156.652 212.413 187.363 265.138C168.744 265.173 150.125 265.173 131.506 265.138C139.412 252.337 147.303 239.527 155.182 226.71C151.545 221.002 147.914 215.288 144.289 209.57C130.39 233.675 116.505 257.788 102.632 281.911C141.025 281.972 179.419 281.981 217.812 281.937C184.062 223.792 150.333 165.633 116.623 107.462C104.725 87.0711 92.8348 66.6759 80.951 46.2764C100.808 31.7765 122.909 22.3444 147.255 17.9804C155.254 16.5922 163.304 15.796 171.404 15.5917Z" fill="black"/>
<path fill-rule="evenodd" clip-rule="evenodd" d="M106.15 73.4964C113.307 73.479 120.464 73.4964 127.621 73.5488C159.006 127.674 190.391 181.798 221.775 235.923C231.209 251.368 240.632 266.82 250.045 282.278C242.765 282.348 235.486 282.348 228.206 282.278C219.115 266.792 210.025 251.305 200.934 235.818C200.256 234.564 199.557 233.321 198.834 232.091C167.911 179.24 137.017 126.375 106.15 73.4964Z" fill="black"/>
</g>
</svg>
