<svg  width="350" height="350" viewBox="0 0 350 350" fill="none" xmlns="http://www.w3.org/2000/svg">
<path fill-rule="evenodd" clip-rule="evenodd" d="M290.619 306.37C327.029 274.301 350 227.333 350 175C350 78.3502 271.65 0 175 0C136.363 0 100.651 12.521 71.6993 33.7267L115.016 107.333H115.111L121.572 118.474L122.111 119.389H122.103L216.611 282.333H101.5L143.111 210L154 227.111L130.277 265.611H186.277L101.132 119.389H101.111L96.0713 110.7L94.1113 107.333H94.1187L57.9239 44.9281C22.3596 76.9598 0 123.369 0 175C0 271.65 78.3502 350 175 350C212.777 350 247.759 338.03 276.359 317.676L236.912 248.889H236.833L135.333 73.8889H250.444L208.833 146.223L197.944 129.111L221.667 90.6111H165.667L257.833 248.889H257.684L290.619 306.37ZM220.679 236.457L248.889 282.723H227.111L199.5 235.667L199.549 235.665L105 73.8889H126.389L220.679 236.457Z" fill="white"/>
</svg>
